<svg xmlns="http://www.w3.org/2000/svg" viewBox="0 0 448 512">
  <path fill="#000000" d="M224 0c-12.2 0-23.5 1.2-34.7 3.4-32.2 6.4-48.8 19.8-56.5 34.6-15.8 30.5-8.4 66 2 95.5l1.8 5c6.2 17.2 13.9 38.5 23.9 56.4 11.3 20.2 23.5 34.3 37.3 43.2 9.6 6.2 19.8 9.2 30.3 9.2 10.6 0 20.8-3 30.4-9.2 13.8-8.9 26-23 37.3-43.2 10-17.9 17.7-39.2 23.9-56.4l1.8-5c10.4-29.5 17.8-65 2-95.5-7.7-14.8-24.3-28.2-56.5-34.6-11.2-2.2-22.8-3.4-34.7-3.4zm0 22.6c10.2 0 20.2 1 29.7 2.9 27.2 5.4 38.6 15.3 43.5 24.7 11.5 22.2 5.5 51.6-4 78.6l-1.8 5c-5.8 16.2-13 35.7-21.9 51.7-9.2 16.5-18.9 27.4-28.3 33.4-6.6 4.2-12.8 6.1-19.1 6.1s-12.5-1.9-19.1-6.1c-9.4-6-19.1-16.9-28.3-33.4-8.9-16-16.1-35.5-21.9-51.7l-1.8-5c-9.5-27-15.5-56.4-4-78.6 4.9-9.4 16.3-19.3 43.5-24.7 9.5-1.9 19.5-2.9 29.7-2.9z"/>
</svg> 